<?xml version="1.0" encoding="utf-8"?>
<!-- Generator: Adobe Illustrator 16.0.0, SVG Export Plug-In . SVG Version: 6.00 Build 0)  -->
<!DOCTYPE svg PUBLIC "-//W3C//DTD SVG 1.1//EN" "http://www.w3.org/Graphics/SVG/1.1/DTD/svg11.dtd">
<svg version="1.1" id="lni_lni-envelope" xmlns="http://www.w3.org/2000/svg" xmlns:xlink="http://www.w3.org/1999/xlink" x="0px"
	 y="0px" width="52px" height="52px" viewBox="0 0 52 52" enable-background="new 0 0 52 52" xml:space="preserve">
<path fill="#7C0EAA" d="M45.5,7.8h-39c-2.763,0-5.119,2.275-5.119,5.119v26.325c0,2.762,2.275,5.117,5.119,5.117h39
	c2.764,0,5.119-2.273,5.119-5.117V12.837C50.619,10.075,48.264,7.8,45.5,7.8z M45.5,11.456c0.081,0,0.162,0,0.244,0L26,24.131
	L6.256,11.456c0.081,0,0.163,0,0.244,0H45.5z M45.5,40.544h-39c-0.813,0-1.462-0.649-1.462-1.463v-24.05L24.05,27.219
	c0.569,0.406,1.219,0.568,1.869,0.568c0.649,0,1.3-0.162,1.868-0.568L46.8,15.031v24.131C46.963,39.975,46.313,40.544,45.5,40.544z"
	/>
</svg>
