<?xml version="1.0" encoding="utf-8"?>
<!-- Generator: Adobe Illustrator 16.0.0, SVG Export Plug-In . SVG Version: 6.00 Build 0)  -->
<!DOCTYPE svg PUBLIC "-//W3C//DTD SVG 1.1//EN" "http://www.w3.org/Graphics/SVG/1.1/DTD/svg11.dtd">
<svg version="1.1" id="Layer_1" xmlns="http://www.w3.org/2000/svg" xmlns:xlink="http://www.w3.org/1999/xlink" x="0px" y="0px"
	 width="52px" height="52px" viewBox="0 0 52 52" enable-background="new 0 0 52 52" xml:space="preserve">
<path fill="#353535" d="M43.875,8.044c-4.713-4.712-11.131-7.313-17.712-7.313c-13.813,0-25.106,11.212-25.106,25.025
	c0,4.469,1.138,8.694,3.332,12.594L0.813,51.27l13.406-3.413c3.656,1.95,7.8,3.088,12.025,3.088
	c13.731-0.081,24.944-11.294,24.944-25.188C51.188,19.094,48.588,12.838,43.875,8.044z M26.081,46.638
	c-3.656,0-7.475-1.056-10.644-3.006l-0.813-0.487l-7.881,2.031l2.194-7.638L8.45,36.726c-2.031-3.331-3.169-7.231-3.169-11.131
	c0-11.457,9.263-20.719,20.8-20.719c5.525,0,10.726,2.193,14.625,6.094c3.9,3.9,6.094,9.181,6.094,14.787
	C46.963,37.375,37.537,46.638,26.081,46.638z M37.537,31.038c-0.649-0.325-3.656-1.869-4.387-1.95
	c-0.569-0.244-1.057-0.325-1.382,0.325c-0.325,0.649-1.625,1.95-1.95,2.438c-0.324,0.325-0.649,0.487-1.381,0.081
	c-0.65-0.325-2.6-0.894-5.038-3.169c-1.869-1.625-3.168-3.656-3.413-4.387c-0.325-0.65-0.081-0.894,0.325-1.3
	c0.325-0.325,0.65-0.65,0.894-1.137c0.325-0.325,0.325-0.65,0.65-1.057c0.325-0.325,0.081-0.813-0.082-1.137
	c-0.244-0.325-1.381-3.413-1.95-4.712c-0.488-1.3-1.057-1.057-1.381-1.057c-0.325,0-0.813,0-1.138,0
	c-0.325,0-1.137,0.082-1.625,0.813c-0.569,0.65-2.194,2.194-2.194,5.281c0,3.088,2.194,5.932,2.6,6.5
	c0.325,0.325,4.469,6.743,10.644,9.506c1.462,0.65,2.6,1.057,3.575,1.382c1.462,0.487,2.844,0.324,3.899,0.243
	c1.219-0.081,3.656-1.462,4.226-3.006c0.487-1.382,0.487-2.763,0.324-3.007C38.594,31.525,38.106,31.281,37.537,31.038z"/>
</svg>
