<?xml version="1.0" encoding="utf-8"?>
<!-- Generator: Adobe Illustrator 16.0.0, SVG Export Plug-In . SVG Version: 6.00 Build 0)  -->
<!DOCTYPE svg PUBLIC "-//W3C//DTD SVG 1.1//EN" "http://www.w3.org/Graphics/SVG/1.1/DTD/svg11.dtd">
<svg version="1.1" id="Layer_1" xmlns="http://www.w3.org/2000/svg" xmlns:xlink="http://www.w3.org/1999/xlink" x="0px" y="0px"
	 width="52px" height="52px" viewBox="0 0 52 52" enable-background="new 0 0 52 52" xml:space="preserve">
<path fill="#353535" d="M50.537,25.188C50.049,12.594,39.73,2.275,27.056,1.788C20.23,1.544,13.893,3.981,8.937,8.613
	c-4.875,4.712-7.556,10.969-7.556,17.712c0,11.132,7.475,20.882,18.2,23.726c0.325,0.08,0.569,0.08,0.894,0.08
	c0.731,0,1.463-0.243,2.031-0.73c0.813-0.65,1.3-1.625,1.3-2.682v-2.6c0-0.731,0.081-3.818,0.081-4.388
	c0.082-0.406,0.163-0.731,0.406-0.976c0.488-0.649,0.569-1.543,0.244-2.274c-0.325-0.649-0.975-1.138-1.706-1.138
	c-0.487-0.081-1.056-0.162-1.462-0.324c-0.65-0.163-1.219-0.406-1.869-0.732c-0.488-0.243-0.894-0.649-1.3-1.137
	c-0.244-0.244-0.569-0.813-0.894-1.869c-0.325-0.975-0.406-1.949-0.406-3.006c0-1.463,0.406-2.6,1.3-3.575
	c0.488-0.569,0.65-1.3,0.325-1.95c-0.244-0.568-0.325-1.219-0.163-2.031c1.138,0.406,1.462,0.65,1.544,0.731l0.081,0.081
	c0.325,0.163,0.569,0.325,0.813,0.488l0.244,0.163c0.406,0.244,0.975,0.325,1.462,0.162c1.3-0.325,2.682-0.568,3.981-0.568
	c1.381,0,2.681,0.162,3.982,0.568c0.486,0.163,0.975,0.082,1.462-0.162l0.894-0.569c0.568-0.325,1.219-0.65,1.787-0.894
	c0.163,0.731,0.082,1.463-0.162,2.113s-0.081,1.381,0.325,1.869c0.894,0.975,1.3,2.112,1.3,3.575c0,1.137-0.162,2.112-0.406,2.925
	c-0.324,0.813-0.568,1.462-0.975,1.95c-0.325,0.406-0.813,0.73-1.463,1.137c-0.65,0.326-1.219,0.569-1.869,0.732
	c-0.406,0.08-0.975,0.243-1.543,0.324h-0.082c-0.73,0.162-1.299,0.65-1.625,1.301c-0.243,0.649-0.243,1.381,0.244,2.031
	c0.325,0.406,0.488,1.056,0.488,1.787v6.094c0,1.057,0.486,2.112,1.381,2.682c0.894,0.649,1.949,0.813,2.925,0.486
	C44.037,46.638,51.105,36.4,50.537,25.188z M32.662,46.313v-5.688c0-0.73-0.082-1.381-0.244-1.949H32.5
	c0.813-0.244,1.705-0.569,2.6-1.057c0,0,0.081,0,0.081-0.082c0.976-0.568,1.788-1.219,2.356-1.949
	c0.813-0.895,1.219-2.031,1.625-3.088c0.406-1.219,0.568-2.519,0.568-4.144c0-1.95-0.568-3.737-1.625-5.2
	c0.325-1.543,0.162-3.25-0.568-5.037c-0.162-0.488-0.65-0.894-1.138-1.057c-0.894-0.325-1.868-0.162-3.169,0.244
	c-0.813,0.325-1.625,0.731-2.438,1.137l-0.162,0.244c-2.763-0.65-5.688-0.65-8.45,0c-0.082-0.081-0.163-0.081-0.325-0.162
	c-0.487-0.325-1.137-0.65-2.194-1.057c-1.3-0.568-2.356-0.731-3.331-0.406c-0.487,0.163-0.975,0.569-1.138,1.138
	c-0.65,1.869-0.813,3.494-0.487,5.038c-1.056,1.462-1.625,3.25-1.625,5.2c0,1.463,0.163,2.763,0.569,4.063
	c0.406,1.301,0.894,2.356,1.543,3.088c0.731,0.894,1.544,1.543,2.438,2.031c0.813,0.487,1.707,0.813,2.6,1.057
	c0.082,0,0.082,0,0.163,0c-0.081,0.243-0.081,0.568-0.163,0.813c0,0.08,0,0.162,0,0.162s0,1.057,0,2.193
	c-1.788-0.65-3.25-1.543-4.55-2.844c-0.975-1.137-2.113-2.193-2.681-2.519c-1.138-0.569-1.869,0.569-1.707,1.219
	c0.244,0.813,1.381,1.3,2.113,1.95c0.731,0.73,0.894,1.706,1.381,2.519c0.731,1.056,3.25,2.438,5.363,2.438v1.868
	C11.293,43.957,5.118,35.75,5.118,26.406c0-5.769,2.275-11.131,6.418-15.112c3.9-3.819,9.1-5.85,14.544-5.85
	c0.244,0,0.569,0,0.812,0C37.699,5.85,46.475,14.625,46.881,25.35C47.368,34.775,41.518,43.388,32.662,46.313z"/>
</svg>
