<?xml version="1.0" encoding="utf-8"?>
<!-- Generator: Adobe Illustrator 16.0.0, SVG Export Plug-In . SVG Version: 6.00 Build 0)  -->
<!DOCTYPE svg PUBLIC "-//W3C//DTD SVG 1.1//EN" "http://www.w3.org/Graphics/SVG/1.1/DTD/svg11.dtd">
<svg version="1.1" id="Layer_1" xmlns="http://www.w3.org/2000/svg" xmlns:xlink="http://www.w3.org/1999/xlink" x="0px" y="0px"
	 width="52px" height="52px" viewBox="0 0 52 52" enable-background="new 0 0 52 52" xml:space="preserve">
<rect fill="none" width="52" height="52"/>
<g>
	<path fill="#353535" d="M11.862,51.188H4.631C2.112,51.188,0,49.156,0,46.719V22.75c0-2.519,2.031-4.469,4.631-4.469h7.231
		c2.519,0,4.631,2.031,4.631,4.469v23.969C16.575,49.156,14.462,51.188,11.862,51.188z M4.631,22.263
		c-0.244,0-0.488,0.081-0.488,0.325v23.969c0,0.081,0.082,0.324,0.488,0.324h7.231c0.244,0,0.488-0.081,0.488-0.324V22.75
		c0-0.081-0.244-0.325-0.488-0.325H4.631V22.263z"/>
	<path fill="#353535" d="M47.773,51.188h-7.313c-2.519,0-4.631-2.031-4.631-4.469v-9.912c0-0.488-0.325-0.813-0.975-0.813
		c-0.488,0-0.976,0.324-0.976,0.813v9.831c0,2.519-2.031,4.469-4.632,4.469h-7.23c-2.519,0-4.631-2.031-4.631-4.469V22.75
		c0-2.519,2.031-4.469,4.631-4.469h7.23c1.545,0,2.844,0.731,3.656,1.869c0.326-0.081,0.732-0.325,0.976-0.487
		c2.519-1.219,5.362-1.544,7.962-1.219c5.688,0.731,10.076,5.444,10.156,11.131v17.306C52.242,49.156,50.211,51.188,47.773,51.188z
		 M34.936,32.013c2.764,0,4.957,2.274,4.957,4.875v9.831c0,0.081,0.081,0.325,0.487,0.325h7.231c0.244,0,0.487-0.081,0.487-0.325
		V29.494c-0.081-3.575-2.925-6.663-6.663-6.988c-1.868-0.244-4.063,0.081-5.931,0.975c-0.976,0.325-1.788,0.975-2.601,1.462
		l-3.168,2.275V22.75c0-0.081-0.082-0.325-0.488-0.325h-7.23c-0.244,0-0.488,0.082-0.488,0.325v23.969
		c0,0.081,0.082,0.325,0.488,0.325h7.313c0.244,0,0.487-0.081,0.487-0.325v-9.912C29.98,34.125,32.092,32.013,34.936,32.013z"/>
	<path fill="#353535" d="M8.774,17.794c-4.712,0-8.612-3.819-8.612-8.531c0-4.713,3.737-8.45,8.612-8.45s8.612,3.819,8.612,8.531
		S13.487,17.794,8.774,17.794z M8.774,4.956c-2.519,0-4.631,2.031-4.631,4.388c0,2.519,2.031,4.388,4.631,4.388
		s4.631-2.031,4.631-4.388C13.406,6.825,11.375,4.956,8.774,4.956z"/>
</g>
</svg>
