<?xml version="1.0" encoding="utf-8"?>
<!-- Generator: Adobe Illustrator 19.0.0, SVG Export Plug-In . SVG Version: 6.00 Build 0)  -->
<svg version="1.1" id="Camada_1" xmlns="http://www.w3.org/2000/svg" xmlns:xlink="http://www.w3.org/1999/xlink" x="0px" y="0px"
	 viewBox="2 147 616.1 500" style="enable-background:new 2 147 616.1 500;" xml:space="preserve">
<style type="text/css">
	.st0{fill:#FFFFFF;}
</style>
<g>
	<path class="st0" d="M246.3,553.6c-1.4,1.3-2.6,2.5-4,3.8c-19.5,16.9-41.6,25.3-66.4,25.3c-36.3,0-65.6-16.6-87.8-49.8
		c-15.3-23.2-23-48.7-23-76.7c0-41.6,14.7-75.3,44.2-101.1c19.5-16.9,41.6-25.3,66.4-25.3c27.5,0,51,9.6,70.4,28.7v-75.8
		c-21.9-10.7-45.4-16.1-70.4-16.1c-50.6,0-93,20.3-127.3,60.9C17.5,363.7,2,406.7,2,456.2c0,58.5,20.2,106.4,60.9,143.9
		c32.7,30.5,70.4,45.8,113,45.8c25.3-0.3,48.7-5.7,70.4-16.3L246.3,553.6L246.3,553.6z"/>
	<polygon class="st0" points="419,456.1 561.3,321 618.1,266.5 526.5,266.5 517,275.2 388.6,397.8 388.6,514.6 517,637.1 
		526.5,645.8 618.1,645.8 561.3,591.3 	"/>
	<polygon class="st0" points="349.5,411.5 349.5,148.1 286.3,148.1 286.3,645.8 349.5,645.8 349.5,518.2 349.5,518.2 	"/>
</g>
</svg>
