<svg xmlns="http://www.w3.org/2000/svg" viewBox="0 0 400 400"><path fill="#07bc4c" d="M201.1 1.338c-109.8.1-198.6 89-198.5 198.9 0 41.4 12.7 79.7 35.2 112.6 1.7 2.5 2.2 5.6 1.3 8.5l-20.1 67.6 66.1-22.9c2.9-1 6-.6 8.5 1.1 31 20.1 68.1 31.6 107.9 31.6 109.9-.1 198.6-89 198.5-198.9-.1-109.9-89-198.6-198.9-198.5zm-81.2 86.7l36.2 59.7-15 14.9c-3.1 3.2-3.8 8.1-1.5 12 23 39.8 50.3 70.7 88.4 87.4 3.7 1.7 8.1.9 11-2l16-16 58.4 36.4c-6.4 14.6-14.9 23.2-24.5 28.3-11.2 5.9-24.8 7-40.4 3.8-31.1-6.4-68.7-30.8-99.4-62.1-30.7-31.3-54.4-69.4-60.5-100.4-3-15.5-1.7-28.8 4-39.4 4.9-9.2 13.3-17 27.3-22.6z"></path></svg>